<?xml version="1.0" encoding="UTF-8" standalone="no"?>
<!-- Created with Inkscape (http://www.inkscape.org/) -->

<svg
   width="27.894785mm"
   height="48.10611mm"
   viewBox="0 0 27.894785 48.10611"
   version="1.1"
   id="svg1"
   xml:space="preserve"
   xmlns:inkscape="http://www.inkscape.org/namespaces/inkscape"
   xmlns:sodipodi="http://sodipodi.sourceforge.net/DTD/sodipodi-0.dtd"
   xmlns="http://www.w3.org/2000/svg"
   xmlns:svg="http://www.w3.org/2000/svg"><sodipodi:namedview
     id="namedview1"
     pagecolor="#ffffff"
     bordercolor="#000000"
     borderopacity="0.25"
     inkscape:showpageshadow="2"
     inkscape:pageopacity="0.0"
     inkscape:pagecheckerboard="0"
     inkscape:deskcolor="#d1d1d1"
     inkscape:document-units="mm" /><defs
     id="defs1"><clipPath
       clipPathUnits="userSpaceOnUse"
       id="clipPath4"><rect
         style="opacity:0.778641;fill:#202932;stroke:#000000;stroke-width:0"
         id="rect4"
         width="27.894783"
         height="48.135567"
         x="105.59614"
         y="34.88316" /></clipPath></defs><g
     inkscape:label="Layer 1"
     inkscape:groupmode="layer"
     id="layer1"
     transform="translate(-90.582361,-65.846884)"><path
       style="fill:#000000"
       d="m 241.7634,143.31471 c 0.60929,1.18448 0.48404,2.32082 -0.34728,3.1508 -0.24042,0.24004 -1.44795,0.76893 -2.68339,1.17532 -4.43273,1.45812 -9.19642,4.32779 -14.19604,8.55177 -3.20114,2.70452 -5.68076,5.47488 -12.75588,14.25151 -7.21176,8.94612 -8.84241,10.80949 -13.88364,15.86506 -6.42263,6.44091 -11.11903,10.17274 -18.10469,14.38623 -14.52267,8.75955 -33.4803,13.81683 -53.8249,14.35874 -1.72694,0.046 -3.21298,0.1566 -3.30229,0.24577 -0.26416,0.26373 -0.23252,61.49514 0.0318,61.49535 0.13297,1.1e-4 2.49877,-1.29559 5.25732,-2.87932 l 5.01555,-2.87951 -6.55041,19.38791 c -3.60272,10.66335 -6.66761,19.73496 -6.81087,20.15912 l -0.26045,0.77122 -0.74188,-2.14964 c -0.40803,-1.1823 -3.45998,-10.26461 -6.7821,-20.1829 l -6.04023,-18.03326 4.83935,2.82776 c 2.66165,1.55527 5.02146,2.86946 5.24404,2.92041 0.29093,0.0666 0.41292,-8.53289 0.43399,-30.59367 0.0161,-16.87747 -0.059,-30.77472 -0.16684,-30.88278 -0.10789,-0.10807 -0.87435,-0.18445 -1.70324,-0.16975 -0.82889,0.0147 -3.62581,-0.12923 -6.21538,-0.31985 -20.926413,-1.54047 -38.007823,-6.9539 -52.586141,-16.66558 -6.261992,-4.17157 -8.174755,-5.78777 -15.211884,-12.85332 -5.932197,-5.95617 -6.837445,-6.95919 -11.448463,-12.68499 -2.753808,-3.41959 -5.797967,-7.19423 -6.764798,-8.38809 -2.699876,-3.33386 -8.082942,-8.61773 -10.857724,-10.65764 -4.1233893,-3.03136 -8.8503989,-5.5361 -12.03093967,-6.37493 -2.04221403,-0.53862 -2.94745503,-1.91149 -2.35458703,-3.57093 0.2709,-0.75825 0.495962,-1.01849 1.176836,-1.36078 0.99806903,-0.50175 1.14562603,-0.49246 3.35148,0.21091 1.46286,0.46645 9.6677957,0.54891 58.1915327,0.58482 31.068706,0.023 56.492018,-0.0386 56.496248,-0.137 0.004,-0.0983 0.0245,-13.65047 0.045,-30.11585 l 0.0373,-29.937044 -5.33624,-5.34483 -5.33624,-5.34483 0.01,-3.92217 0.01,-3.92217 5.3205,5.32907 5.3205,5.32906 0.0105,-3.35979 0.0105,-3.35978 -5.33498,-5.34357 -5.33497,-5.343557 0.01,-3.92217 0.01,-3.92217 5.3205,5.329063 5.3205,5.329064 0.0105,-3.359788 0.0105,-3.359787 -5.33482,-5.34341 -5.33482,-5.34341 0.009,-4.01639 0.009,-4.01639 6.53163,6.652386 c 3.5924,3.658812 6.77089,6.796074 7.06332,6.971693 l 0.53169,0.319308 6.86906,-6.960413 6.86906,-6.960413 0.003,4.016322 0.003,4.016322 -5.43726,5.428522 -5.43726,5.428523 0.006,3.086746 c 0.003,1.69771 0.0669,3.148179 0.14185,3.223264 0.075,0.07509 2.51507,-2.23843 5.42246,-5.141145 l 5.28616,-5.277664 0.004,3.922181 0.004,3.922181 -5.43718,5.428442 -5.43718,5.42845 0.005,3.3598 0.005,3.3598 5.42268,-5.41397 5.42268,-5.41397 0.004,3.92218 0.004,3.92218 -5.43372,5.42498 -5.43371,5.42499 -0.0233,30.027514 -0.0233,30.02752 56.75761,0.022 c 49.71274,0.0193 56.96092,-0.0475 58.3955,-0.53836 2.0666,-0.70708 3.41909,-0.44888 4.04745,0.77268 z m -66.07076,2.77932 -53.13277,-0.0422 -0.01,28.5441 -0.01,28.5441 2.71337,-0.0909 c 22.54779,-0.75495 38.98727,-4.2793 53.12332,-11.38874 12.13098,-6.10104 20.42188,-13.2897 31.96364,-27.71425 4.57884,-5.72249 11.49028,-12.61545 15.17446,-15.13388 1.40553,-0.96079 2.79835,-1.88281 3.09516,-2.04894 0.29681,-0.16613 0.46664,-0.37519 0.3774,-0.46457 -0.0892,-0.0894 -24.072,-0.18152 -53.29502,-0.20474 z m -165.7293923,0.0559 c -8.35e-5,0.10393 0.9168263,0.79515 2.0375773,1.53605 5.24132,3.46489 10.497198,8.5985 16.726189,16.33707 9.90011,12.29937 17.108495,18.9245 27.005217,24.82012 14.821618,8.82945 33.083281,13.30379 57.882379,14.18193 l 2.71238,0.096 0.004,-28.53732 0.004,-28.53733 -53.185508,-0.0428 c -29.252026,-0.0235 -53.1855707,0.0423 -53.1856543,0.1462 z"
       id="path2"
       clip-path="url(#clipPath4)"
       transform="translate(-15.013777,30.934264)" /></g></svg>
